<svg width="106" height="45" viewBox="0 0 106 45" fill="none" xmlns="http://www.w3.org/2000/svg">
<path d="M25.392 44.208L21.072 38.4C19.792 38.656 18.544 38.784 17.328 38.784C14.16 38.784 11.248 38.048 8.592 36.576C5.968 35.104 3.872 33.056 2.304 30.432C0.768 27.776 0 24.8 0 21.504C0 18.208 0.768 15.248 2.304 12.624C3.872 10 5.968 7.952 8.592 6.48C11.248 5.008 14.16 4.272 17.328 4.272C20.496 4.272 23.392 5.008 26.016 6.48C28.672 7.952 30.752 10 32.256 12.624C33.792 15.248 34.56 18.208 34.56 21.504C34.56 24.384 33.968 27.024 32.784 29.424C31.632 31.792 30.016 33.76 27.936 35.328L35.328 44.208H25.392ZM8.4 21.504C8.4 24.48 9.2 26.864 10.8 28.656C12.432 30.416 14.608 31.296 17.328 31.296C20.016 31.296 22.16 30.4 23.76 28.608C25.392 26.816 26.208 24.448 26.208 21.504C26.208 18.528 25.392 16.16 23.76 14.4C22.16 12.608 20.016 11.712 17.328 11.712C14.608 11.712 12.432 12.592 10.8 14.352C9.2 16.112 8.4 18.496 8.4 21.504Z" fill="#AF3EE9"/>
<path d="M65.6681 11.664V38.448H57.4601V34.8C56.6281 35.984 55.4921 36.944 54.0521 37.68C52.6441 38.384 51.0761 38.736 49.3481 38.736C47.3001 38.736 45.4921 38.288 43.9241 37.392C42.3561 36.464 41.1401 35.136 40.2761 33.408C39.4121 31.68 38.9801 29.648 38.9801 27.312V11.664H47.1401V26.208C47.1401 28 47.6041 29.392 48.5321 30.384C49.4601 31.376 50.7081 31.872 52.2761 31.872C53.8761 31.872 55.1401 31.376 56.0681 30.384C56.9961 29.392 57.4601 28 57.4601 26.208V11.664H65.6681Z" fill="#3293C0"/>
<path d="M75.6919 8.88C74.2519 8.88 73.0679 8.464 72.1399 7.632C71.2439 6.768 70.7959 5.712 70.7959 4.464C70.7959 3.184 71.2439 2.128 72.1399 1.296C73.0679 0.432 74.2519 0 75.6919 0C77.0999 0 78.2519 0.432 79.1479 1.296C80.0759 2.128 80.5399 3.184 80.5399 4.464C80.5399 5.712 80.0759 6.768 79.1479 7.632C78.2519 8.464 77.0999 8.88 75.6919 8.88ZM79.7719 11.664V38.448H71.5639V11.664H79.7719Z" fill="#CAAB2D"/>
<path d="M93.4001 31.68H105.016V38.448H84.2321V31.92L95.3681 18.432H84.3281V11.664H104.776V18.192L93.4001 31.68Z" fill="#50A465"/>
</svg>
